<svg xmlns="http://www.w3.org/2000/svg" viewBox="0 0 112 112">
  <defs>
    <linearGradient id="face-fill" x1="56" x2="56" y1="25" y2="104" gradientUnits="userSpaceOnUse">
      <stop offset="0" stop-color="#fff4df"/>
      <stop offset="1" stop-color="#ffd18e"/>
    </linearGradient>
  </defs>
  <g transform="rotate(-28 29 35)">
    <rect x="10" y="11" width="38" height="48" rx="13" fill="#ffbb7f" stroke="#5b4030" stroke-width="5"/>
    <rect x="18" y="22" width="22" height="28" rx="10" fill="#ff8fb0"/>
  </g>
  <g transform="rotate(28 83 35)">
    <rect x="64" y="11" width="38" height="48" rx="13" fill="#ffbb7f" stroke="#5b4030" stroke-width="5"/>
    <rect x="72" y="22" width="22" height="28" rx="10" fill="#ff8fb0"/>
  </g>
  <path d="M56 25c28 0 48 18 48 45 0 24-19 34-48 34S8 94 8 70c0-27 20-45 48-45Z" fill="url(#face-fill)" stroke="#5b4030" stroke-width="5"/>
  <ellipse cx="36" cy="78" rx="11" ry="10" fill="#ffd3df"/>
  <ellipse cx="76" cy="78" rx="11" ry="10" fill="#ffd3df"/>
  <rect x="36" y="58" width="12" height="20" rx="6" fill="#4b3327"/>
  <rect x="64" y="58" width="12" height="20" rx="6" fill="#4b3327"/>
  <rect x="50" y="83" width="12" height="9" rx="5" fill="#e46c84"/>
</svg>
